<svg xmlns="http://www.w3.org/2000/svg" version="1.1" xmlns:xlink="http://www.w3.org/1999/xlink" xmlns:svgjs="http://svgjs.dev/svgjs" width="100%" height="100%" viewBox="0 0 1000 600"><rect width="1000" height="600" x="0" y="0" fill="#f4efea"/><g><circle r="166.66666666666666" cx="427.96683756510413" cy="450.1890306079264" fill="#7d141d" transform="matrix(0.4783770311753266,0,0,0.47837703117532654,0,84.63989070808181)"/><path d="M496.53491524954006 419.4945569510415L473.53237678809336 419.4945569510415Q467.40813406396296 406.630716970691 455.80430574455795 399.56879115004307Q444.20047742515294 392.4775627326289 428.8166141229115 392.4775627326289L428.8166141229115 392.4775627326289Q413.40344822390387 392.4775627326289 401.06705498534456 399.56879115004307Q388.73066174678524 406.630716970691 381.63943332937106 419.8168855154694Q374.5775075087231 433.0030540602478 374.5775075087231 450.29158615229056L374.5775075087231 450.29158615229056Q374.5775075087231 467.6094208410995 381.63943332937106 480.67837899881323Q388.73066174678524 493.7473371565269 401.06705498534456 500.838565573941Q413.40344822390387 507.90049139458904 428.8166141229115 507.90049139458904L428.8166141229115 507.90049139458904Q450.3247201492834 507.90049139458904 464.2434536132161 495.0366514142386Q478.1621870771489 482.14350883712194 480.5063948184428 460.2251664560236L480.5063948184428 460.2251664560236L421.8425960925621 460.2251664560236L421.8425960925621 444.60688237965275L500.95960736123243 444.60688237965275L500.95960736123243 459.37539114980456Q499.2600567487943 477.5136985480664 489.5608972191906 492.6045358826461Q479.86173768958696 507.69537321722584 464.0383354358529 516.4275470535458Q448.21493318211884 525.1890234866319 428.8166141229115 525.1890234866319L428.8166141229115 525.1890234866319Q408.3340989833557 525.1890234866319 391.4558032460394 515.6070743440928Q374.5775075087231 505.99582260478775 364.76113759205475 488.9124086901082Q354.9740702721525 471.8289947754286 354.9740702721525 450.29158615229056L354.9740702721525 450.29158615229056Q354.9740702721525 428.7834801259187 364.76113759205475 411.58285582417443Q374.5775075087231 394.38223152243023 391.4558032460394 384.80028237989126Q408.3340989833557 375.1890306405861 428.8166141229115 375.1890306405861L428.8166141229115 375.1890306405861Q452.2293889390847 375.1890306405861 470.2504859502818 386.79285895999107Q488.3008855582451 398.3966872793961 496.53491524954006 419.4945569510415L496.53491524954006 419.4945569510415Z " fill="#f4efea" transform="matrix(0.4783770311753266,0,0,0.47837703117532654,0,84.63989070808181)"/><path d="M777.6161653299698 411.57517485600454L761.4239230761597 411.57517485600454Q757.1128674952089 402.51989542998837 748.944551657618 397.5487739227677Q740.7762358200272 392.5570253553511 729.9470292171605 392.5570253553511L729.9470292171605 392.5570253553511Q719.0971955540979 392.5570253553511 710.4132032116087 397.5487739227677Q701.7292108691194 402.51989542998837 696.7374623017027 411.80207251815983Q691.7663407944821 421.08424960633124 691.7663407944821 433.2542151219338L691.7663407944821 433.2542151219338Q691.7663407944821 445.4448076977323 696.7374623017027 454.64447654511997Q701.7292108691194 463.84414539250764 710.4132032116087 468.83589395992425Q719.0971955540979 473.80701546714494 729.9470292171605 473.80701546714494L729.9470292171605 473.80701546714494Q745.087291400978 473.80701546714494 754.8851449940478 464.7517360411288Q764.6829985871176 455.6758295549168 766.3331634027925 440.24678852835626L766.3331634027925 440.24678852835626L725.0377888905276 440.24678852835626L725.0377888905276 429.2525654439221L780.7308514195562 429.2525654439221L780.7308514195562 439.6486037826741Q779.5344819281919 452.4167540439588 772.7069250033369 463.0396900448661Q765.8793680784819 473.6626260457734 754.7407555726762 479.8094899841625Q743.6021430668704 485.97698098274753 729.9470292171605 485.97698098274753L729.9470292171605 485.97698098274753Q715.5287141402009 485.97698098274753 703.6475274673414 479.23193229867627Q691.7663407944821 472.4662565544091 684.8562756288434 460.4406804601781Q677.9668375234005 448.4151043659471 677.9668375234005 433.2542151219338L677.9668375234005 433.2542151219338Q677.9668375234005 418.11395293811637 684.8562756288434 406.00586860310165Q691.7663407944821 393.8977842680869 703.6475274673414 387.1527355840157Q715.5287141402009 380.38705983974853 729.9470292171605 380.38705983974853L729.9470292171605 380.38705983974853Q746.4280503137138 380.38705983974853 759.1136923342148 388.5553756773394Q771.8199614149116 396.72369151493024 777.6161653299698 411.57517485600454L777.6161653299698 411.57517485600454ZM793.4990016808409 444.1040487849964Q793.4990016808409 431.6246773664548 798.5526314288454 422.19811085691185Q803.6062611768498 412.77154434736883 812.4346429407107 407.57352517799285Q821.2836517647673 402.3755060086168 832.1128583676341 402.3755060086168L832.1128583676341 402.3755060086168Q842.8183026093251 402.3755060086168 850.6772125439769 406.9753404323107Q858.5567495388246 411.57517485600454 862.4140097954648 418.54712120223104L862.4140097954648 418.54712120223104L862.4140097954648 403.69563786115674L876.0691236451747 403.69563786115674L876.0691236451747 485.0900173943223L862.4140097954648 485.0900173943223L862.4140097954648 469.94975521050486Q858.4123601174531 477.0660909781029 850.4503148818216 481.74843364258055Q842.508896706386 486.4307763070581 831.9684689462625 486.4307763070581L831.9684689462625 486.4307763070581Q821.1186352831999 486.4307763070581 812.3727617601228 481.08836771631053Q803.6062611768498 475.72533206536707 798.5526314288454 466.07186789366875Q793.4990016808409 456.4184037219705 793.4990016808409 444.1040487849964L793.4990016808409 444.1040487849964ZM862.4140097954648 444.24843820636795Q862.4140097954648 435.0487693589803 858.7011389601962 428.20058537392936Q854.9882681249276 421.37302844907435 848.676387704971 417.7426658545895Q842.3645072850145 414.09167619990876 834.7943761931058 414.09167619990876L834.7943761931058 414.09167619990876Q827.2242451011971 414.09167619990876 820.9742458618283 417.6601576138058Q814.7448736826555 421.2286390277028 811.0320028473869 428.0561959525578Q807.3191320121184 434.88375287741275 807.3191320121184 444.1040487849964L807.3191320121184 444.1040487849964Q807.3191320121184 453.4481070537556 811.0320028473869 460.35817221939436Q814.7448736826555 467.2682373850331 820.9742458618283 470.89859997951794Q827.2242451011971 474.5495896341987 834.7943761931058 474.5495896341987L834.7943761931058 474.5495896341987Q842.3645072850145 474.5495896341987 848.676387704971 470.89859997951794Q854.9882681249276 467.2682373850331 858.7011389601962 460.35817221939436Q862.4140097954648 453.4481070537556 862.4140097954648 444.24843820636795L862.4140097954648 444.24843820636795ZM893.890903654464 444.1040487849964Q893.890903654464 431.6246773664548 898.9445334024683 422.19811085691185Q903.9981631504728 412.77154434736883 912.8265449143336 407.57352517799285Q921.6755537383904 402.3755060086168 932.6697768228246 402.3755060086168L932.6697768228246 402.3755060086168Q942.1582245129554 402.3755060086168 950.3265403505461 406.7484427701554Q958.494856188137 411.1213795316939 962.8059117690877 418.2583423594879L962.8059117690877 418.2583423594879L962.8059117690877 375.18904067037255L976.4816526789937 375.18904067037255L976.4816526789937 485.0900173943223L962.8059117690877 485.0900173943223L962.8059117690877 469.7847387289374Q958.8042620910761 477.0660909781029 950.9247250962284 481.74843364258055Q943.0658151615766 486.4307763070581 932.504760341257 486.4307763070581L932.504760341257 486.4307763070581Q921.6755537383904 486.4307763070581 912.8265449143336 481.08836771631053Q903.9981631504728 475.72533206536707 898.9445334024683 466.07186789366875Q893.890903654464 456.4184037219705 893.890903654464 444.1040487849964L893.890903654464 444.1040487849964ZM962.8059117690877 444.24843820636795Q962.8059117690877 435.0487693589803 959.0930409338191 428.20058537392936Q955.3801700985507 421.37302844907435 949.068289678594 417.7426658545895Q942.7564092586374 414.09167619990876 935.1862781667287 414.09167619990876L935.1862781667287 414.09167619990876Q927.6161470748201 414.09167619990876 921.3661478354513 417.6601576138058Q915.1367756562785 421.2286390277028 911.42390482101 428.0561959525578Q907.7110339857413 434.88375287741275 907.7110339857413 444.1040487849964L907.7110339857413 444.1040487849964Q907.7110339857413 453.4481070537556 911.42390482101 460.35817221939436Q915.1367756562785 467.2682373850331 921.3661478354513 470.89859997951794Q927.6161470748201 474.5495896341987 935.1862781667287 474.5495896341987L935.1862781667287 474.5495896341987Q942.7564092586374 474.5495896341987 949.068289678594 470.89859997951794Q955.3801700985507 467.2682373850331 959.0930409338191 460.35817221939436Q962.8059117690877 453.4481070537556 962.8059117690877 444.24843820636795L962.8059117690877 444.24843820636795ZM1032.917289375076 402.3755060086168Q1043.4577171351996 402.3755060086168 1051.399135310635 406.9753404323107Q1059.3405534860706 411.57517485600454 1063.1978137427109 418.54712120223104L1063.1978137427109 418.54712120223104L1063.1978137427109 403.69563786115674L1076.8735546526166 403.69563786115674L1076.8735546526166 486.8639445711728Q1076.8735546526166 498.00255707697846 1072.1087037473553 506.7071764796637Q1067.36447990229 515.391168822153 1058.536098138429 520.2797820885899Q1049.6870893143723 525.1890224152228 1037.9502920628845 525.1890224152228L1037.9502920628845 525.1890224152228Q1021.9230662906418 525.1890224152228 1011.2176220489507 517.6188913233141Q1000.5328048674555 510.0487602314054 998.5938612090376 496.97120406718165L998.5938612090376 496.97120406718165L1011.9601962160045 496.97120406718165Q1014.1879187171655 504.3969457377188 1021.1804921235881 508.9348989808248Q1028.1524384698146 513.452225163735 1037.9502920628845 513.452225163735L1037.9502920628845 513.452225163735Q1049.0889045686902 513.452225163735 1056.1433591557004 506.4802788175084Q1063.1978137427109 499.4877054110859 1063.1978137427109 486.8639445711728L1063.1978137427109 486.8639445711728L1063.1978137427109 469.7847387289374Q1059.1961640646991 476.92170155673136 1051.3166270698512 481.6659254017968Q1043.4577171351996 486.4307763070581 1032.917289375076 486.4307763070581L1032.917289375076 486.4307763070581Q1022.0674557120133 486.4307763070581 1013.2390739481525 481.08836771631053Q1004.3900651240957 475.72533206536707 999.3364353760912 466.07186789366875Q994.3034326882828 456.4184037219705 994.3034326882828 444.1040487849964L994.3034326882828 444.1040487849964Q994.3034326882828 431.6246773664548 999.3364353760912 422.19811085691185Q1004.3900651240957 412.77154434736883 1013.2390739481525 407.57352517799285Q1022.0674557120133 402.3755060086168 1032.917289375076 402.3755060086168L1032.917289375076 402.3755060086168ZM1063.1978137427109 444.24843820636795Q1063.1978137427109 435.0487693589803 1059.4849429074422 428.20058537392936Q1055.7720720721736 421.37302844907435 1049.460191652217 417.7426658545895Q1043.1483112322605 414.09167619990876 1035.5781801403518 414.09167619990876L1035.5781801403518 414.09167619990876Q1028.0080490484431 414.09167619990876 1021.7786768692702 417.6601576138058Q1015.5286776299015 421.2286390277028 1011.8158067946329 428.0561959525578Q1008.1029359593643 434.88375287741275 1008.1029359593643 444.1040487849964L1008.1029359593643 444.1040487849964Q1008.1029359593643 453.4481070537556 1011.8158067946329 460.35817221939436Q1015.5286776299015 467.2682373850331 1021.7786768692702 470.89859997951794Q1028.0080490484431 474.5495896341987 1035.5781801403518 474.5495896341987L1035.5781801403518 474.5495896341987Q1043.1483112322605 474.5495896341987 1049.460191652217 470.89859997951794Q1055.7720720721736 467.2682373850331 1059.4849429074422 460.35817221939436Q1063.1978137427109 453.4481070537556 1063.1978137427109 444.24843820636795L1063.1978137427109 444.24843820636795ZM1174.0063811152818 441.2781415381531Q1174.0063811152818 445.1354017947932 1173.552585790971 449.44645737574393L1173.552585790971 449.44645737574393L1108.4948379329874 449.44645737574393Q1109.237412100041 461.4720334699749 1116.745662011362 468.2377092142421Q1124.2539119226828 474.98275789831337 1134.938729104178 474.98275789831337L1134.938729104178 474.98275789831337Q1143.7052296874508 474.98275789831337 1149.563314783097 470.89859997951794Q1155.4420269389389 466.8144420607225 1157.8141388614715 459.9868851358675L1157.8141388614715 459.9868851358675L1172.3562162996068 459.9868851358675Q1169.0971407886489 471.7236823873554 1159.299287195579 479.0669158171088Q1149.5014336025092 486.4307763070581 1134.938729104178 486.4307763070581L1134.938729104178 486.4307763070581Q1123.3463212740617 486.4307763070581 1114.2291606674576 481.2327571376821Q1105.0913730006578 476.0347379683061 1099.8933538312817 466.44315497719566Q1094.6953346619057 456.8721990462811 1094.6953346619057 444.24843820636795L1094.6953346619057 444.24843820636795Q1094.6953346619057 431.6246773664548 1099.7489644099103 422.11560261612806Q1104.7819670977187 412.60652786580135 1113.9197547645185 407.4910169372091Q1123.0575424313186 402.3755060086168 1134.938729104178 402.3755060086168L1134.938729104178 402.3755060086168Q1146.5311369342942 402.3755060086168 1155.4420269389389 407.4085086964254Q1164.3529169435833 412.4621384444298 1169.1796490294325 421.31114726848654Q1174.0063811152818 430.1395290323474 1174.0063811152818 441.2781415381531L1174.0063811152818 441.2781415381531ZM1160.0418613626325 438.4522342913098Q1160.0418613626325 430.73771377802956 1156.6177693701072 425.16840752512667Q1153.2143044377776 419.59910127222383 1147.3355922819358 416.6906857845968Q1141.4775071862898 413.80289735716565 1134.3405443584957 413.80289735716565L1134.3405443584957 413.80289735716565Q1124.0888954411153 413.80289735716565 1116.8900514327333 420.34167543927754Q1109.6912074243517 426.8804535213894 1108.659854414555 438.4522342913098L1108.659854414555 438.4522342913098L1160.0418613626325 438.4522342913098ZM1229.5344271627428 414.83425036696246L1208.309182221124 414.83425036696246L1208.309182221124 462.8127923827108Q1208.309182221124 468.7533857191405 1210.8256835650284 471.208005882457Q1213.3628119691286 473.6626260457734 1219.5921841483014 473.6626260457734L1219.5921841483014 473.6626260457734L1229.5344271627428 473.6626260457734L1229.5344271627428 485.0900173943223L1217.3644616471402 485.0900173943223Q1206.0814597199628 485.0900173943223 1200.4296452262763 479.89199822494624Q1194.7984577927855 474.69397905557025 1194.7984577927855 462.8127923827108L1194.7984577927855 462.8127923827108L1194.7984577927855 414.83425036696246L1184.237402972466 414.83425036696246L1184.237402972466 403.69563786115674L1194.7984577927855 403.69563786115674L1194.7984577927855 383.21296708659185L1208.309182221124 383.21296708659185L1208.309182221124 403.69563786115674L1229.5344271627428 403.69563786115674L1229.5344271627428 414.83425036696246ZM1351.7703858838624 381.5834293311128L1365.2811103122008 381.5834293311128L1365.2811103122008 485.0900173943223L1351.7703858838624 485.0900173943223L1351.7703858838624 438.1634554485667L1299.0476200230487 438.1634554485667L1299.0476200230487 485.0900173943223L1285.5368955947104 485.0900173943223L1285.5368955947104 381.5834293311128L1299.0476200230487 381.5834293311128L1299.0476200230487 427.024842942761L1351.7703858838624 427.024842942761L1351.7703858838624 381.5834293311128ZM1462.5583261962374 441.2781415381531Q1462.5583261962374 445.1354017947932 1462.1251579321229 449.44645737574393L1462.1251579321229 449.44645737574393L1397.067410074139 449.44645737574393Q1397.8099842411928 461.4720334699749 1405.318234152514 468.2377092142421Q1412.8058570036387 474.98275789831337 1423.5113012453298 474.98275789831337L1423.5113012453298 474.98275789831337Q1432.2571747684067 474.98275789831337 1438.1358869242486 470.89859997951794Q1443.9939720198947 466.8144420607225 1446.3660839424274 459.9868851358675L1446.3660839424274 459.9868851358675L1460.9287884407586 459.9868851358675Q1457.6697129298004 471.7236823873554 1447.8512322765346 479.0669158171088Q1438.0533786834649 486.4307763070581 1423.5113012453298 486.4307763070581L1423.5113012453298 486.4307763070581Q1411.9188934152135 486.4307763070581 1402.7811057484134 481.2327571376821Q1393.6433180816136 476.0347379683061 1388.4452989122376 466.44315497719566Q1383.2472797428616 456.8721990462811 1383.2472797428616 444.24843820636795L1383.2472797428616 444.24843820636795Q1383.2472797428616 431.6246773664548 1388.3009094908662 422.11560261612806Q1393.3545392388705 412.60652786580135 1402.4923269056703 407.4910169372091Q1411.6301145724701 402.3755060086168 1423.5113012453298 402.3755060086168L1423.5113012453298 402.3755060086168Q1435.08308201525 402.3755060086168 1443.9939720198947 407.4085086964254Q1452.9048620245394 412.4621384444298 1457.7315941103884 421.31114726848654Q1462.5583261962374 430.1395290323474 1462.5583261962374 441.2781415381531L1462.5583261962374 441.2781415381531ZM1448.5938064435884 438.4522342913098Q1448.5938064435884 430.73771377802956 1445.190341511259 425.16840752512667Q1441.7662495187335 419.59910127222383 1435.9081644230876 416.6906857845968Q1430.0294522672457 413.80289735716565 1422.9131164996475 413.80289735716565L1422.9131164996475 413.80289735716565Q1412.661467582267 413.80289735716565 1405.4626235738851 420.34167543927754Q1398.2637795655032 426.8804535213894 1397.2117994955106 438.4522342913098L1397.2117994955106 438.4522342913098L1448.5938064435884 438.4522342913098ZM1475.3264764575222 444.1040487849964Q1475.3264764575222 431.6246773664548 1480.3801062055268 422.19811085691185Q1485.4337359535311 412.77154434736883 1494.262117717392 407.57352517799285Q1503.1111265414486 402.3755060086168 1513.9403331443154 402.3755060086168L1513.9403331443154 402.3755060086168Q1524.6457773860066 402.3755060086168 1532.5046873206581 406.9753404323107Q1540.384224315506 411.57517485600454 1544.241484572146 418.54712120223104L1544.241484572146 418.54712120223104L1544.241484572146 403.69563786115674L1557.917225482052 403.69563786115674L1557.917225482052 485.0900173943223L1544.241484572146 485.0900173943223L1544.241484572146 469.94975521050486Q1540.2398348941342 477.0660909781029 1532.2984167186987 481.74843364258055Q1524.3363714830675 486.4307763070581 1513.7959437229438 486.4307763070581L1513.7959437229438 486.4307763070581Q1502.9667371200771 486.4307763070581 1494.200236536804 481.08836771631053Q1485.4337359535311 475.72533206536707 1480.3801062055268 466.07186789366875Q1475.3264764575222 456.4184037219705 1475.3264764575222 444.1040487849964L1475.3264764575222 444.1040487849964ZM1544.241484572146 444.24843820636795Q1544.241484572146 435.0487693589803 1540.5286137368776 428.20058537392936Q1536.815742901609 421.37302844907435 1530.5038624816525 417.7426658545895Q1524.1919820616959 414.09167619990876 1516.621850969787 414.09167619990876L1516.621850969787 414.09167619990876Q1509.0517198778784 414.09167619990876 1502.8017206385098 417.6601576138058Q1496.5723484593368 421.2286390277028 1492.8594776240684 428.0561959525578Q1489.1466067887995 434.88375287741275 1489.1466067887995 444.1040487849964L1489.1466067887995 444.1040487849964Q1489.1466067887995 453.4481070537556 1492.8594776240684 460.35817221939436Q1496.5723484593368 467.2682373850331 1502.8017206385098 470.89859997951794Q1509.0517198778784 474.5495896341987 1516.621850969787 474.5495896341987L1516.621850969787 474.5495896341987Q1524.1919820616959 474.5495896341987 1530.5038624816525 470.89859997951794Q1536.815742901609 467.2682373850331 1540.5286137368776 460.35817221939436Q1544.241484572146 453.4481070537556 1544.241484572146 444.24843820636795L1544.241484572146 444.24843820636795ZM1585.6812485057826 403.69563786115674L1611.0731596069804 472.61064597578064L1636.3206812868066 403.69563786115674L1650.738996363766 403.69563786115674L1618.8083071804565 485.0900173943223L1603.049233190761 485.0900173943223L1571.1185440074514 403.69563786115674L1585.6812485057826 403.69563786115674ZM1738.3627480761043 441.2781415381531Q1738.3627480761043 445.1354017947932 1737.908952751794 449.44645737574393L1737.908952751794 449.44645737574393L1672.85120489381 449.44645737574393Q1673.5937790608637 461.4720334699749 1681.1020289721848 468.2377092142421Q1688.6102788835058 474.98275789831337 1699.295096065001 474.98275789831337L1699.295096065001 474.98275789831337Q1708.0615966482737 474.98275789831337 1713.9196817439197 470.89859997951794Q1719.7983938997618 466.8144420607225 1722.1705058222942 459.9868851358675L1722.1705058222942 459.9868851358675L1736.7125832604297 459.9868851358675Q1733.4535077494716 471.7236823873554 1723.6556541564019 479.0669158171088Q1713.8578005633321 486.4307763070581 1699.295096065001 486.4307763070581L1699.295096065001 486.4307763070581Q1687.7026882348846 486.4307763070581 1678.5855276282805 481.2327571376821Q1669.4477399614807 476.0347379683061 1664.2497207921047 466.44315497719566Q1659.0517016227286 456.8721990462811 1659.0517016227286 444.24843820636795L1659.0517016227286 444.24843820636795Q1659.0517016227286 431.6246773664548 1664.105331370733 422.11560261612806Q1669.1383340585417 412.60652786580135 1678.2761217253415 407.4910169372091Q1687.4139093921415 402.3755060086168 1699.295096065001 402.3755060086168L1699.295096065001 402.3755060086168Q1710.8875038951169 402.3755060086168 1719.7983938997618 407.4085086964254Q1728.7092839044062 412.4621384444298 1733.5360159902557 421.31114726848654Q1738.3627480761043 430.1395290323474 1738.3627480761043 441.2781415381531L1738.3627480761043 441.2781415381531ZM1724.3982283234554 438.4522342913098Q1724.3982283234554 430.73771377802956 1720.97413633093 425.16840752512667Q1717.5706713986006 419.59910127222383 1711.691959242759 416.6906857845968Q1705.8338741471125 413.80289735716565 1698.6969113193186 413.80289735716565L1698.6969113193186 413.80289735716565Q1688.4452624019382 413.80289735716565 1681.2464183935563 420.34167543927754Q1674.0475743851744 426.8804535213894 1673.0162213753777 438.4522342913098L1673.0162213753777 438.4522342913098L1724.3982283234554 438.4522342913098ZM1795.8297377819836 402.21048952704933Q1810.6812211230576 402.21048952704933 1819.8808899704459 411.2038877724777Q1829.101185878029 420.197286017906 1829.101185878029 437.1114753785739L1829.101185878029 437.1114753785739L1829.101185878029 485.0900173943223L1815.7348508710625 485.0900173943223L1815.7348508710625 439.05041903699197Q1815.7348508710625 426.8804535213894 1809.6498681132612 420.40355661986536Q1803.5442582952637 413.9472867785372 1793.0038305351404 413.9472867785372L1793.0038305351404 413.9472867785372Q1782.3190133536455 413.9472867785372 1776.0071329336888 420.63045428202065Q1769.6952525137322 427.3136217855041 1769.6952525137322 440.0817720467888L1769.6952525137322 440.0817720467888L1769.6952525137322 485.0900173943223L1756.184528085394 485.0900173943223L1756.184528085394 403.69563786115674L1769.6952525137322 403.69563786115674L1769.6952525137322 415.2880456912731Q1773.6969021917434 409.05867351210026 1780.6069673573825 405.6345815195748Q1787.517032523021 402.21048952704933 1795.8297377819836 402.21048952704933L1795.8297377819836 402.21048952704933Z " fill="#7d141d" transform="matrix(0.4783770311753266,0,0,0.47837703117532654,0,84.63989070808181)"/></g></svg>